<svg xmlns="http://www.w3.org/2000/svg" viewBox="0 0 90.2 85" fill="none">
    <path fill="#80aadc" d="M90.2 36.1C90.2 16.2 74 0 54.1 0c-3.1 0-6.1.4-9 1.1 5.5 1.4 10.5 4.1 14.7 7.7 1.8.9 3.5 1.9 5.1 3.1C76.3 18 84 30 84 43.8c0 6.7-1.8 13-5.1 18.4 7-6.5 11.3-15.8 11.3-26.1"/>
    <path fill="#acc65d" d="M11.4 25.3C15.7 16.5 23.5 9.7 33 6.8c3.6-2.6 7.6-4.5 12-5.6C42.1.5 39.1.1 36 .1 16.2 0 0 16.2 0 36.1c0 4.7.9 9.3 2.6 13.4V49c0-9.1 3.3-17.4 8.8-23.7"/>
    <path fill="#729d4d" d="M43.8 5.2c5.7 0 11.1 1.3 15.9 3.7-4.2-3.6-9.1-6.3-14.7-7.7-4.4 1.1-8.4 3.1-12 5.6 3.5-1.1 7.1-1.6 10.8-1.6"/>
    <path fill="#8bb756" d="M26.8 73.1c-2.4-1.3-4.7-2.8-6.7-4.6-7.9-4-14.2-10.7-17.5-19C2.9 69.2 18.9 85 38.7 85c8.3 0 15.9-2.8 21.9-7.4-3.9 1.5-8.2 2.3-12.7 2.3-7.8 0-15.1-2.5-21.1-6.8"/>
    <path fill="#729d4d" d="M20.1 68.4C12.5 61.8 7.7 52.1 7.7 41.2c0-5.7 1.3-11.1 3.7-15.9C5.9 31.6 2.6 39.9 2.6 49v.5c3.3 8.3 9.6 15 17.5 18.9"/>
    <path fill="#ffd700" d="M64.9 12c9.1 6.6 15 17.2 15 29.3 0 9.1-3.3 17.3-8.9 23.7-1.8 2.1-3.9 4-6.2 5.6-5.9 4.3-13.2 6.8-21 6.8-6.1 0-11.9-1.5-17-4.2C32.7 77.5 40 80 47.9 80c4.5 0 8.7-.8 12.7-2.3 7.7-2.9 14.2-8.4 18.4-15.4 3.2-5.4 5.1-11.7 5.1-18.4C84 30 76.3 18 64.9 12"/>
    <g fill="currentColor" transform="translate(45 42.5) scale(1.25) translate(-45 -42.5)">
        <path d="M31.15 35.32c.22 0 .7564-.1152.75-.73-.0064-.6148-.53-.75-.75-.75h-9.28c-.22 0-.7502.1326-.75.75v16.03c.0072.6308.53.75.75.75h9.28c.22 0 .743-.1598.75-.73.007-.5702-.53-.76-.75-.76H22.7v-6.81h7.31c.22 0 .7565-.1291.76-.73.0035-.6009-.54-.75-.76-.75H22.7V35.3z"/>
        <path d="M42.2 48.8 36.11 34.37c-.15-.37-.5509-.7287-1.1086-.4624-.5578.2663-.3614.9424-.3114 1.0424l6.73 15.96c.07.15.2884.4864.71.48.4216-.0064.67-.35.73-.5l6.75-15.98c.05-.13.2502-.706-.3443-.9989-.5946-.2929-.9857.2689-1.0757.4189z"/>
        <path d="M55.34,50.47C59.0451,52.677,62.8,51.25,64.09,50.47C67.7101,48.2261,68.19,44.34,68.19,42.62C68.19,40.9,67.7218,36.8903,64.09,34.75C60.4582,32.6097,56.62,33.98,55.34,34.75C54.06,35.52,51.1824,37.8711,51.24,42.62C51.2608,44.3335,51.6349,48.263,55.34,50.47zM56.16,36.05C59.2342,34.2733,62.23,35.42,63.26,36.05C64.7672,37.1609,66.5437,38.7201,66.56,42.62C66.5763,46.5199,64.3,48.55,63.26,49.19C59.9657,50.9725,57.19,49.82,56.16,49.19C55.3163,48.6515,52.782,46.8951,52.86,42.62C52.938,38.3449,55.12,36.69,56.16,36.05z"/>
    </g>
</svg>