<svg xmlns="http://www.w3.org/2000/svg" xmlns:xlink="http://www.w3.org/1999/xlink" viewBox="0 0 90.2 85"><style>.st0{fill:#80aadc}.st0,.st1,.st2,.st3,.st4{clip-path:url(#SVGID_2)}.st1{fill:#acc65d}.st2{fill:#729d4d}.st3{fill:#8bb756}.st4{fill:#ffd700}.st5{fill:currentColor}</style><defs><path id="SVGID_1" d="M0 0h90.2v85H0z"/></defs><clipPath id="SVGID_2"><use xlink:href="#SVGID_1" overflow="visible"/></clipPath><path class="st0" d="M90.2 36.1C90.2 16.2 74 0 54.1 0c-3.1 0-6.1.4-9 1.1 5.5 1.4 10.5 4.1 14.7 7.7 1.8.9 3.5 1.9 5.1 3.1C76.3 18 84 30 84 43.8c0 6.7-1.8 13-5.1 18.4 7-6.5 11.3-15.8 11.3-26.1"/><path class="st1" d="M11.4 25.3C15.7 16.5 23.5 9.7 33 6.8c3.6-2.6 7.6-4.5 12-5.6C42.1.5 39.1.1 36 .1 16.2 0 0 16.2 0 36.1c0 4.7.9 9.3 2.6 13.4V49c0-9.1 3.3-17.4 8.8-23.7"/><path class="st2" d="M43.8 5.2c5.7 0 11.1 1.3 15.9 3.7-4.2-3.6-9.1-6.3-14.7-7.7-4.4 1.1-8.4 3.1-12 5.6 3.5-1.1 7.1-1.6 10.8-1.6"/><path class="st3" d="M26.8 73.1c-2.4-1.3-4.7-2.8-6.7-4.6-7.9-4-14.2-10.7-17.5-19C2.9 69.2 18.9 85 38.7 85c8.3 0 15.9-2.8 21.9-7.4-3.9 1.5-8.2 2.3-12.7 2.3-7.8 0-15.1-2.5-21.1-6.8"/><path class="st2" d="M20.1 68.4C12.5 61.8 7.7 52.1 7.7 41.2c0-5.7 1.3-11.1 3.7-15.9C5.9 31.6 2.6 39.9 2.6 49v.5c3.3 8.3 9.6 15 17.5 18.9"/><path class="st4" d="M64.9 12c9.1 6.6 15 17.2 15 29.3 0 9.1-3.3 17.3-8.9 23.7-1.8 2.1-3.9 4-6.2 5.6-5.9 4.3-13.2 6.8-21 6.8-6.1 0-11.9-1.5-17-4.2C32.7 77.5 40 80 47.9 80c4.5 0 8.7-.8 12.7-2.3 7.7-2.9 14.2-8.4 18.4-15.4 3.2-5.4 5.1-11.7 5.1-18.4C84 30 76.3 18 64.9 12"/><path class="st5" d="M31.15,35.32C31.37,35.32,31.9064,35.2048,31.9,34.59C31.8936,33.9752,31.37,33.84,31.15,33.84L21.87,33.84C21.65,33.84,21.1198,33.9726,21.12,34.59L21.12,50.62C21.1272,51.2508,21.65,51.37,21.87,51.37L31.15,51.37C31.37,51.37,31.893,51.2102,31.9,50.64C31.907,50.0698,31.37,49.88,31.15,49.88L22.7,49.88L22.7,43.07L30.01,43.07C30.23,43.07,30.7665,42.9409,30.77,42.34C30.7735,41.7391,30.23,41.59,30.01,41.59L22.7,41.59L22.7,35.3L31.15,35.32z"/><path class="st5" d="M42.2,48.8L36.11,34.37C35.96,34,35.5591,33.6413,35.0014,33.9076C34.4436,34.1739,34.64,34.85,34.69,34.95L41.42,50.91C41.49,51.06,41.7084,51.3964,42.13,51.39C42.5516,51.3836,42.8,51.04,42.86,50.89L49.61,34.91C49.66,34.78,49.8602,34.204,49.2657,33.9111C48.6711,33.6182,48.28,34.18,48.19,34.33L42.2,48.81L42.2,48.8z"/><path class="st5" d="M55.34,50.47C59.0451,52.677,62.8,51.25,64.09,50.47C67.7101,48.2261,68.19,44.34,68.19,42.62C68.19,40.9,67.7218,36.8903,64.09,34.75C60.4582,32.6097,56.62,33.98,55.34,34.75C54.06,35.52,51.1824,37.8711,51.24,42.62C51.2608,44.3335,51.6349,48.263,55.34,50.47zM56.16,36.05C59.2342,34.2733,62.23,35.42,63.26,36.05C64.7672,37.1609,66.5437,38.7201,66.56,42.62C66.5763,46.5199,64.3,48.55,63.26,49.19C59.9657,50.9725,57.19,49.82,56.16,49.19C55.3163,48.6515,52.782,46.8951,52.86,42.62C52.938,38.3449,55.12,36.69,56.16,36.05z"/></svg>